<svg width="22" height="22" viewBox="0 0 22 22" fill="none" xmlns="http://www.w3.org/2000/svg">
<g filter="url(#filter0_d)">
<path fill-rule="evenodd" clip-rule="evenodd" d="M8.08353 6.41616C8.08353 6.09416 8.34486 5.83283 8.66686 5.83283C8.98886 5.83283 9.2502 6.09416 9.2502 6.41616C9.2502 6.73816 8.98886 6.9995 8.66686 6.9995C8.34486 6.9995 8.08353 6.73816 8.08353 6.41616ZM11.0002 5.83283C10.6782 5.83283 10.4169 6.09416 10.4169 6.41616C10.4169 6.73816 10.6782 6.9995 11.0002 6.9995C11.3222 6.9995 11.5835 6.73816 11.5835 6.41616C11.5835 6.09416 11.3222 5.83283 11.0002 5.83283ZM13.3335 5.83283C13.0115 5.83283 12.7502 6.09416 12.7502 6.41616C12.7502 6.73816 13.0115 6.9995 13.3335 6.9995C13.6555 6.9995 13.9169 6.73816 13.9169 6.41616C13.9169 6.09416 13.6555 5.83283 13.3335 5.83283ZM15.6076 7.17151C15.3118 9.06968 13.7817 10.6441 11.8865 10.9993C10.9712 11.172 10.0391 11.0734 9.19323 10.7153C8.95348 10.6138 8.70557 10.5624 8.46232 10.5624C8.35148 10.5624 8.24182 10.5729 8.1339 10.5945L6.49357 10.9223L6.82198 9.2791C6.89082 8.93785 6.84882 8.57268 6.70123 8.22326C6.34307 7.37743 6.24507 6.44585 6.41715 5.53001C6.7724 3.63476 8.34623 2.10468 10.245 1.80893C11.7558 1.57385 13.2334 2.04985 14.2997 3.11618C15.3666 4.1831 15.8432 5.66126 15.6076 7.17151ZM15.1251 2.29135C13.7922 0.959019 11.9488 0.364602 10.0653 0.655685C7.68701 1.02669 5.71535 2.94235 5.27026 5.31477C5.0556 6.45694 5.17926 7.6201 5.62668 8.67768C5.68326 8.81244 5.70076 8.93785 5.6786 9.05044L5.1781 11.5518C5.1396 11.7431 5.19968 11.9409 5.33793 12.0785C5.44818 12.1894 5.59693 12.2494 5.75035 12.2494C5.78826 12.2494 5.82618 12.2459 5.86468 12.2384L8.3631 11.7384C8.5066 11.711 8.64543 11.7513 8.73818 11.7898C9.79693 12.2372 10.9601 12.3603 12.1011 12.1462C14.4741 11.7011 16.3898 9.72943 16.7608 7.35118C17.0536 5.46877 16.458 3.62427 15.1251 2.29135Z" fill="#373737"/>
<mask id="mask0" mask-type="alpha" maskUnits="userSpaceOnUse" x="5" y="0" width="12" height="13">
<path fill-rule="evenodd" clip-rule="evenodd" d="M8.08353 6.41616C8.08353 6.09416 8.34486 5.83283 8.66686 5.83283C8.98886 5.83283 9.2502 6.09416 9.2502 6.41616C9.2502 6.73816 8.98886 6.9995 8.66686 6.9995C8.34486 6.9995 8.08353 6.73816 8.08353 6.41616ZM11.0002 5.83283C10.6782 5.83283 10.4169 6.09416 10.4169 6.41616C10.4169 6.73816 10.6782 6.9995 11.0002 6.9995C11.3222 6.9995 11.5835 6.73816 11.5835 6.41616C11.5835 6.09416 11.3222 5.83283 11.0002 5.83283ZM13.3335 5.83283C13.0115 5.83283 12.7502 6.09416 12.7502 6.41616C12.7502 6.73816 13.0115 6.9995 13.3335 6.9995C13.6555 6.9995 13.9169 6.73816 13.9169 6.41616C13.9169 6.09416 13.6555 5.83283 13.3335 5.83283ZM15.6076 7.17151C15.3118 9.06968 13.7817 10.6441 11.8865 10.9993C10.9712 11.172 10.0391 11.0734 9.19323 10.7153C8.95348 10.6138 8.70557 10.5624 8.46232 10.5624C8.35148 10.5624 8.24182 10.5729 8.1339 10.5945L6.49357 10.9223L6.82198 9.2791C6.89082 8.93785 6.84882 8.57268 6.70123 8.22326C6.34307 7.37743 6.24507 6.44585 6.41715 5.53001C6.7724 3.63476 8.34623 2.10468 10.245 1.80893C11.7558 1.57385 13.2334 2.04985 14.2997 3.11618C15.3666 4.1831 15.8432 5.66126 15.6076 7.17151ZM15.1251 2.29135C13.7922 0.959019 11.9488 0.364602 10.0653 0.655685C7.68701 1.02669 5.71535 2.94235 5.27026 5.31477C5.0556 6.45694 5.17926 7.6201 5.62668 8.67768C5.68326 8.81244 5.70076 8.93785 5.6786 9.05044L5.1781 11.5518C5.1396 11.7431 5.19968 11.9409 5.33793 12.0785C5.44818 12.1894 5.59693 12.2494 5.75035 12.2494C5.78826 12.2494 5.82618 12.2459 5.86468 12.2384L8.3631 11.7384C8.5066 11.711 8.64543 11.7513 8.73818 11.7898C9.79693 12.2372 10.9601 12.3603 12.1011 12.1462C14.4741 11.7011 16.3898 9.72943 16.7608 7.35118C17.0536 5.46877 16.458 3.62427 15.1251 2.29135Z" fill="white"/>
</mask>
<g mask="url(#mask0)">
<rect x="4" width="14" height="14" fill="#373737"/>
</g>
</g>
<defs>
<filter id="filter0_d" x="0" y="0" width="22" height="22" filterUnits="userSpaceOnUse" color-interpolation-filters="sRGB">
<feFlood flood-opacity="0" result="BackgroundImageFix"/>
<feColorMatrix in="SourceAlpha" type="matrix" values="0 0 0 0 0 0 0 0 0 0 0 0 0 0 0 0 0 0 127 0"/>
<feOffset dy="4"/>
<feGaussianBlur stdDeviation="2"/>
<feColorMatrix type="matrix" values="0 0 0 0 0 0 0 0 0 0 0 0 0 0 0 0 0 0 0.25 0"/>
<feBlend mode="normal" in2="BackgroundImageFix" result="effect1_dropShadow"/>
<feBlend mode="normal" in="SourceGraphic" in2="effect1_dropShadow" result="shape"/>
</filter>
</defs>
</svg>
