<svg width="14" height="14" viewBox="0 0 14 14" fill="none" xmlns="http://www.w3.org/2000/svg">
<path fill-rule="evenodd" clip-rule="evenodd" d="M8.16667 4.08333C8.16667 3.43992 7.64342 2.91667 7 2.91667C6.35658 2.91667 5.83333 3.43992 5.83333 4.08333C5.83333 4.72675 6.35658 5.25 7 5.25C7.64342 5.25 8.16667 4.72675 8.16667 4.08333ZM9.33334 4.08333C9.33334 5.37017 8.28684 6.41667 7 6.41667C5.71317 6.41667 4.66667 5.37017 4.66667 4.08333C4.66667 2.7965 5.71317 1.75 7 1.75C8.28684 1.75 9.33334 2.7965 9.33334 4.08333ZM2.91667 11.6667C2.91667 9.415 4.74892 7.58333 7 7.58333C9.25109 7.58333 11.0833 9.415 11.0833 11.6667C11.0833 11.9887 10.8226 12.25 10.5 12.25C10.1774 12.25 9.91667 11.9887 9.91667 11.6667C9.91667 10.0584 8.60825 8.75 7 8.75C5.39175 8.75 4.08333 10.0584 4.08333 11.6667C4.08333 11.9887 3.82258 12.25 3.5 12.25C3.17742 12.25 2.91667 11.9887 2.91667 11.6667Z" fill="#373737"/>
<mask id="mask0" mask-type="alpha" maskUnits="userSpaceOnUse" x="2" y="1" width="10" height="12">
<path fill-rule="evenodd" clip-rule="evenodd" d="M8.16667 4.08333C8.16667 3.43992 7.64342 2.91667 7 2.91667C6.35658 2.91667 5.83333 3.43992 5.83333 4.08333C5.83333 4.72675 6.35658 5.25 7 5.25C7.64342 5.25 8.16667 4.72675 8.16667 4.08333ZM9.33334 4.08333C9.33334 5.37017 8.28684 6.41667 7 6.41667C5.71317 6.41667 4.66667 5.37017 4.66667 4.08333C4.66667 2.7965 5.71317 1.75 7 1.75C8.28684 1.75 9.33334 2.7965 9.33334 4.08333ZM2.91667 11.6667C2.91667 9.415 4.74892 7.58333 7 7.58333C9.25109 7.58333 11.0833 9.415 11.0833 11.6667C11.0833 11.9887 10.8226 12.25 10.5 12.25C10.1774 12.25 9.91667 11.9887 9.91667 11.6667C9.91667 10.0584 8.60825 8.75 7 8.75C5.39175 8.75 4.08333 10.0584 4.08333 11.6667C4.08333 11.9887 3.82258 12.25 3.5 12.25C3.17742 12.25 2.91667 11.9887 2.91667 11.6667Z" fill="white"/>
</mask>
<g mask="url(#mask0)">
<rect width="14" height="14" fill="#373737"/>
</g>
</svg>
