<svg width="50" height="50" viewBox="0 0 50 50" fill="none" xmlns="http://www.w3.org/2000/svg">
<circle cx="25" cy="25" r="25" fill="white"/>
<path d="M26.31 33.3999C24.9877 33.6065 23.6353 33.4979 22.3629 33.0829C21.0905 32.668 19.9341 31.9585 18.9878 31.0122C18.0414 30.0658 17.3319 28.9094 16.917 27.637C16.5021 26.3646 16.3935 25.0122 16.6 23.6899C16.0787 22.6984 15.8883 21.5662 16.0564 20.4587C16.2246 19.3513 16.7425 18.3266 17.5346 17.5345C18.3267 16.7424 19.3513 16.2245 20.4588 16.0563C21.5663 15.8882 22.6985 16.0786 23.69 16.5999C25.0123 16.3934 26.3647 16.502 27.6371 16.9169C28.9095 17.3318 30.0659 18.0413 31.0123 18.9877C31.9586 19.934 32.6681 21.0904 33.083 22.3628C33.498 23.6352 33.6066 24.9876 33.4 26.3099C33.9213 27.3014 34.1117 28.4336 33.9436 29.5411C33.7754 30.6486 33.2575 31.6732 32.4654 32.4653C31.6733 33.2574 30.6487 33.7754 29.5412 33.9435C28.4337 34.1117 27.3015 33.9212 26.31 33.3999ZM25.052 30.1559H25.012C27.884 30.1559 29.315 28.7699 29.315 26.9129C29.315 25.7149 28.764 24.4419 26.589 23.9549L24.606 23.5149C23.851 23.3429 22.984 23.1149 22.984 22.3999C22.984 21.6849 23.604 21.1869 24.708 21.1869C26.938 21.1869 26.735 22.7149 27.839 22.7149C28.415 22.7149 28.932 22.3729 28.932 21.7849C28.932 20.4149 26.735 19.3849 24.876 19.3849C22.855 19.3849 20.703 20.2439 20.703 22.5289C20.703 23.6269 21.097 24.7989 23.263 25.3419L25.952 26.0129C26.768 26.2149 26.97 26.6719 26.97 27.0849C26.97 27.7719 26.286 28.4429 25.052 28.4429C22.635 28.4429 22.974 26.5859 21.678 26.5859C21.098 26.5859 20.675 26.9839 20.675 27.5569C20.675 28.6709 22.027 30.1549 25.052 30.1549V30.1559Z" fill="#373737"/>
</svg>
