<svg width="14" height="14" viewBox="0 0 14 14" fill="none" xmlns="http://www.w3.org/2000/svg">
<path fill-rule="evenodd" clip-rule="evenodd" d="M8.75 6.99992H7.58333V5.83325C7.58333 5.51067 7.322 5.24992 7 5.24992C6.678 5.24992 6.41667 5.51067 6.41667 5.83325V7.58325C6.41667 7.90583 6.678 8.16658 7 8.16658H8.75C9.072 8.16658 9.33333 7.90583 9.33333 7.58325C9.33333 7.26067 9.072 6.99992 8.75 6.99992ZM7 11.5208C4.82883 11.5208 3.0625 9.75442 3.0625 7.58325C3.0625 5.41209 4.82883 3.64575 7 3.64575C9.17117 3.64575 10.9375 5.41209 10.9375 7.58325C10.9375 9.75442 9.17117 11.5208 7 11.5208ZM7.57633 2.36709C7.5775 2.35484 7.58333 2.3455 7.58333 2.33325V1.74992H8.16667C8.48867 1.74992 8.75 1.48917 8.75 1.16659C8.75 0.844002 8.48867 0.583252 8.16667 0.583252H5.83333C5.51133 0.583252 5.25 0.844002 5.25 1.16659C5.25 1.48917 5.51133 1.74992 5.83333 1.74992H6.41667V2.33325C6.41667 2.3455 6.4225 2.35484 6.42367 2.36709C3.79925 2.65525 1.75 4.88359 1.75 7.58325C1.75 10.4783 4.1055 12.8333 7 12.8333C9.8945 12.8333 12.25 10.4783 12.25 7.58325C12.25 4.88359 10.2007 2.65525 7.57633 2.36709Z" fill="#373737"/>
<mask id="mask0" mask-type="alpha" maskUnits="userSpaceOnUse" x="1" y="0" width="12" height="13">
<path fill-rule="evenodd" clip-rule="evenodd" d="M8.75 6.99992H7.58333V5.83325C7.58333 5.51067 7.322 5.24992 7 5.24992C6.678 5.24992 6.41667 5.51067 6.41667 5.83325V7.58325C6.41667 7.90583 6.678 8.16658 7 8.16658H8.75C9.072 8.16658 9.33333 7.90583 9.33333 7.58325C9.33333 7.26067 9.072 6.99992 8.75 6.99992ZM7 11.5208C4.82883 11.5208 3.0625 9.75442 3.0625 7.58325C3.0625 5.41209 4.82883 3.64575 7 3.64575C9.17117 3.64575 10.9375 5.41209 10.9375 7.58325C10.9375 9.75442 9.17117 11.5208 7 11.5208ZM7.57633 2.36709C7.5775 2.35484 7.58333 2.3455 7.58333 2.33325V1.74992H8.16667C8.48867 1.74992 8.75 1.48917 8.75 1.16659C8.75 0.844002 8.48867 0.583252 8.16667 0.583252H5.83333C5.51133 0.583252 5.25 0.844002 5.25 1.16659C5.25 1.48917 5.51133 1.74992 5.83333 1.74992H6.41667V2.33325C6.41667 2.3455 6.4225 2.35484 6.42367 2.36709C3.79925 2.65525 1.75 4.88359 1.75 7.58325C1.75 10.4783 4.1055 12.8333 7 12.8333C9.8945 12.8333 12.25 10.4783 12.25 7.58325C12.25 4.88359 10.2007 2.65525 7.57633 2.36709Z" fill="white"/>
</mask>
<g mask="url(#mask0)">
<rect width="14" height="14" fill="#373737"/>
</g>
</svg>
