<svg width="50" height="50" viewBox="0 0 50 50" fill="none" xmlns="http://www.w3.org/2000/svg">
<circle cx="25" cy="25" r="25" fill="white"/>
<path d="M35.162 18.6559C34.3986 18.9936 33.589 19.2154 32.76 19.3139C33.6337 18.7914 34.2877 17.9689 34.6 16.9999C33.78 17.4879 32.881 17.8299 31.944 18.0149C31.3146 17.3415 30.4804 16.8949 29.5709 16.7445C28.6615 16.5941 27.7279 16.7484 26.9153 17.1834C26.1026 17.6183 25.4564 18.3096 25.0771 19.1497C24.6978 19.9898 24.6067 20.9317 24.818 21.8289C23.1551 21.7456 21.5283 21.3134 20.0433 20.5606C18.5582 19.8077 17.2481 18.751 16.198 17.4589C15.8263 18.0974 15.6309 18.8232 15.632 19.5619C15.632 21.0119 16.37 22.2929 17.492 23.0429C16.828 23.022 16.1786 22.8427 15.598 22.5199V22.5719C15.5982 23.5376 15.9324 24.4735 16.5438 25.221C17.1553 25.9684 18.0065 26.4814 18.953 26.6729C18.3366 26.84 17.6903 26.8646 17.063 26.7449C17.3299 27.5762 17.85 28.3031 18.5506 28.824C19.2512 29.3449 20.0971 29.6337 20.97 29.6499C20.1025 30.3313 19.1092 30.8349 18.0469 31.1321C16.9846 31.4293 15.8741 31.5142 14.779 31.3819C16.6907 32.6114 18.9161 33.264 21.189 33.2619C28.882 33.2619 33.089 26.8889 33.089 21.3619C33.089 21.1819 33.084 20.9999 33.076 20.8219C33.8949 20.2301 34.6016 19.4969 35.163 18.6569L35.162 18.6559Z" fill="#373737"/>
</svg>
